<svg xmlns="http://www.w3.org/2000/svg" viewBox="0 0 1600 900" role="img" aria-labelledby="t d">
  <title id="t">流れ星の街路</title>
  <desc id="d">夜景の道路と流れ星、街灯の光を描いた風景</desc>
  <defs>
    <linearGradient id="night" x1="0" y1="0" x2="0" y2="1">
      <stop offset="0" stop-color="#0b1b37"/>
      <stop offset="1" stop-color="#304b76"/>
    </linearGradient>
  </defs>
  <rect width="1600" height="900" fill="url(#night)"/>
  <path d="M0 690l350-140 260 80 250-120 280 100 460-170v460H0z" fill="#142b49"/>
  <path d="M640 860 830 520 1020 860" fill="#11233d"/>
  <path d="M350 840 780 560 1210 840" fill="none" stroke="#f2cf8f" stroke-opacity="0.55" stroke-width="9"/>
  <g fill="#ffd9a1">
    <circle cx="370" cy="600" r="10"/><circle cx="590" cy="650" r="10"/><circle cx="1030" cy="590" r="10"/><circle cx="1260" cy="620" r="10"/>
  </g>
  <path d="M270 190 840 310" stroke="#fff6c7" stroke-width="8" stroke-linecap="round"/>
  <path d="M250 175 870 298" stroke="#ffd993" stroke-opacity="0.75" stroke-width="22" stroke-linecap="round"/>
  <g fill="#fff1c2" opacity="0.9">
    <circle cx="120" cy="140" r="2"/><circle cx="280" cy="120" r="2"/><circle cx="420" cy="160" r="1.6"/><circle cx="1280" cy="120" r="1.8"/>
    <circle cx="1360" cy="190" r="2"/><circle cx="1500" cy="150" r="1.5"/>
  </g>
  <text x="80" y="826" fill="#f6e8c8" font-size="34" font-family="'Noto Sans JP', sans-serif">流れ星が横切る夜の街路</text>
</svg>
